<svg width="24" height="24" viewBox="0 0 24 24" fill="none" xmlns="http://www.w3.org/2000/svg">
<path d="M20.6531 12.7969L13.0593 20.3906C12.9207 20.5306 12.7557 20.6418 12.5739 20.7177C12.3921 20.7935 12.197 20.8326 12 20.8326C11.8029 20.8326 11.6079 20.7935 11.426 20.7177C11.2442 20.6418 11.0792 20.5306 10.9406 20.3906L3.14996 12.6C2.60922 12.0607 2.18416 11.4168 1.90078 10.7076C1.61741 9.99841 1.48166 9.23889 1.50184 8.47545C1.52202 7.71202 1.69771 6.96072 2.01817 6.26751C2.33862 5.57429 2.7971 4.95372 3.36558 4.44375C5.54996 2.46562 9.11246 2.65312 11.2968 4.84687L12 5.54062L12.9 4.65C13.4397 4.11223 14.0824 3.68892 14.7895 3.4054C15.4967 3.12189 16.2539 2.984 17.0156 3C17.7808 3.01866 18.534 3.19382 19.229 3.51468C19.9239 3.83553 20.5457 4.29529 21.0562 4.86562C23.025 7.05 22.8468 10.6125 20.6531 12.7969V12.7969Z" fill="#DA2535"/>
</svg>
