<svg width="24" height="24" viewBox="0 0 24 24" fill="none" xmlns="http://www.w3.org/2000/svg">
<path d="M12 20.6438C11.8273 20.6459 11.656 20.6129 11.4965 20.5468C11.337 20.4808 11.1925 20.383 11.0719 20.2594L3.28127 12.4688C2.75812 11.9468 2.34687 11.3237 2.07262 10.6374C1.79837 9.95119 1.66688 9.21626 1.68618 8.4775C1.70548 7.73875 1.87517 7.01169 2.18488 6.34071C2.4946 5.66974 2.93783 5.06894 3.48752 4.575C4.01716 4.10713 4.63507 3.74997 5.30486 3.52456C5.97464 3.29915 6.68277 3.21005 7.38752 3.2625C8.81336 3.35693 10.1562 3.9667 11.1656 4.97813L12 5.8125L13.0313 4.78125C13.5524 4.25836 14.1748 3.84727 14.8602 3.57313C15.5457 3.29899 16.2799 3.16755 17.0179 3.18685C17.7559 3.20616 18.4822 3.3758 19.1524 3.68541C19.8225 3.99502 20.4225 4.43808 20.9156 4.9875C21.3865 5.51552 21.7463 6.13296 21.9734 6.80301C22.2005 7.47306 22.2903 8.18198 22.2375 8.8875C22.1431 10.3133 21.5333 11.6562 20.5219 12.6656L12.9281 20.2594C12.8075 20.383 12.6631 20.4808 12.5035 20.5468C12.344 20.6129 12.1727 20.6459 12 20.6438V20.6438ZM7.03127 4.37813C6.00607 4.36692 5.01344 4.73791 4.24689 5.41875C3.80935 5.80857 3.45624 6.28383 3.20929 6.81526C2.96235 7.34669 2.8268 7.92305 2.81099 8.50884C2.79518 9.09463 2.89945 9.67746 3.11737 10.2214C3.3353 10.7654 3.66226 11.259 4.07814 11.6719L11.8688 19.4625C11.8855 19.4807 11.9057 19.4952 11.9283 19.5051C11.9509 19.5151 11.9753 19.5202 12 19.5202C12.0247 19.5202 12.0491 19.5151 12.0717 19.5051C12.0943 19.4952 12.1146 19.4807 12.1313 19.4625L19.725 11.8688C21.4313 10.1625 21.5906 7.41563 20.0813 5.74688C19.6914 5.30934 19.2162 4.95622 18.6848 4.70928C18.1533 4.46233 17.577 4.32678 16.9912 4.31097C16.4054 4.29517 15.8226 4.39943 15.2786 4.61736C14.7346 4.83528 14.241 5.16225 13.8281 5.57813L12.3938 7.00313C12.287 7.10679 12.1441 7.16477 11.9953 7.16477C11.8465 7.16477 11.7036 7.10679 11.5969 7.00313L10.3688 5.775C9.93181 5.33392 9.41205 4.98346 8.83931 4.74375C8.26658 4.50404 7.65214 4.37978 7.03127 4.37813V4.37813Z" fill="#574AE8"/>
</svg>
